<?xml version="1.0" encoding="utf-8"?>
<!-- Generator: Adobe Illustrator 19.0.0, SVG Export Plug-In . SVG Version: 6.00 Build 0)  -->
<svg version="1.1" id="Layer_2" xmlns="http://www.w3.org/2000/svg" xmlns:xlink="http://www.w3.org/1999/xlink" x="0px" y="0px"
	 viewBox="-47 170.9 500 500" style="enable-background:new -47 170.9 500 500;" xml:space="preserve">
<style type="text/css">
	.st0{fill:#252525;}
	.st1{fill:#FFFFFF;}
</style>
<path id="XMLID_55_" class="st0" d="M132.8,556.8L132.8,556.8l-21.1,0.1L132.8,556.8L132.8,556.8z"/>
<path id="XMLID_48_" class="st0" d="M267.9,555.9l1.4-7L267.9,555.9L267.9,555.9L267.9,555.9z"/>
<path id="XMLID_47_" class="st0" d="M266.1,557.3L266.1,557.3c-4.3,0-17.2,0.1-27,0.1C251,557.5,266.1,557.3,266.1,557.3
	L266.1,557.3z"/>
<path id="XMLID_45_" class="st0" d="M240.5,557.5c-0.1,0-0.2,0-0.3,0C240.3,557.5,240.4,557.5,240.5,557.5z"/>
<path id="XMLID_43_" class="st0" d="M247.4,557.5L247.4,557.5L247.4,557.5z"/>
<path id="XMLID_42_" class="st0" d="M243.8,557.5h-0.2H243.8z"/>
<path id="XMLID_41_" class="st0" d="M242.7,557.5c-0.1,0-0.2,0-0.3,0C242.5,557.5,242.6,557.5,242.7,557.5z"/>
<path id="XMLID_40_" class="st0" d="M241.6,557.5h-0.3H241.6z"/>
<path id="XMLID_39_" class="st0" d="M243.6,557.5c-0.3,0-0.6,0-0.9,0C243,557.5,243.3,557.5,243.6,557.5z"/>
<path id="XMLID_38_" class="st0" d="M247.4,557.5c-1.2,0-2.4,0-3.5,0C245,557.5,246.2,557.5,247.4,557.5z"/>
<path id="XMLID_37_" class="st0" d="M266.1,557.3L266.1,557.3c-3.2,0-11,0.1-18.7,0.1C255.2,557.4,263,557.4,266.1,557.3z"/>
<path id="XMLID_36_" class="st0" d="M267.9,555.9l1.2-5.8L267.9,555.9L267.9,555.9L267.9,555.9z"/>
<path id="XMLID_35_" class="st0" d="M242.4,557.5h-0.8H242.4z"/>
<path id="XMLID_34_" class="st0" d="M240.2,557.5h-1H240.2z"/>
<path id="XMLID_33_" class="st0" d="M241.3,557.5h-0.8H241.3z"/>
<path id="XMLID_23_" class="st0" d="M295.9,556.3c-0.4,0.2-1.5,0.3-2.3,0.3h1.5c0.8,0,1.6-0.7,1.8-1.5l0.3-1.4
	C297,554.6,296.3,556.2,295.9,556.3L295.9,556.3z"/>
<path class="st0" d="M772.9,457.4l-18.7-10.8c0,0,0,0,0,0L772.9,457.4z"/>
<path class="st0" d="M773.9,384.2l-19.7,11.4c0,0,0,0,0,0L773.9,384.2z"/>
<rect x="295.9" y="415.4" class="st0" width="11.3" height="11.4"/>
<path class="st0" d="M365.8,327.1c-2.6-4.5-6.2-8.5-10.2-10.8l-138.1-79.7c-8-4.6-21-4.6-28.9,0L50.5,316.3
	c-8,4.6-14.5,15.9-14.5,25v159.4c0,4.6,1.6,9.7,4.2,14.2c2.6,4.5,6.2,8.5,10.2,10.8l138.1,79.7c8,4.6,21,4.6,28.9,0l138.1-79.7
	c4-2.3,7.6-6.3,10.2-10.8c2.6-4.5,4.2-9.6,4.2-14.2V341.3C370,336.8,368.4,331.6,365.8,327.1z M203,532.4
	c-41.1,0-77.1-22.4-96.4-55.7c-9.5-16.4-14.9-35.4-14.9-55.7c0-61.4,49.9-111.3,111.3-111.3c39.6,0,76.6,21.3,96.4,55.6l-26.7,15.4
	l-21.5,12.5c0,0,0,0,0,0c-9.9-17.2-28.4-27.8-48.2-27.8c-30.7,0-55.7,25-55.7,55.7c0,10.1,2.7,19.6,7.5,27.8
	c9.6,16.6,27.6,27.8,48.2,27.8c19.8,0,38.3-10.7,48.2-27.8c0,0,0,0,0,0l20.4,11.8l27.7,16C279.6,511.1,242.6,532.4,203,532.4z
	 M332.5,414.9h-12.4v12.4h12.4v12.4h-12.4V452h-12.4v-12.4h-12.4V452H283v-12.4h-12.4v-12.4H283v-12.4h-12.4v-12.4H283v-12.4h12.4
	v12.4h12.4v-12.4h12.4v12.4h12.4V414.9z"/>
<g>
	<path class="st1" d="M754.2,446.6l18.7,10.8L754.2,446.6C754.2,446.6,754.2,446.6,754.2,446.6z"/>
	<path class="st1" d="M754.2,395.6C754.2,395.6,754.2,395.6,754.2,395.6l19.7-11.4L754.2,395.6z"/>
</g>
</svg>
