<?xml version="1.0" encoding="utf-8"?>
<!-- Generator: Adobe Illustrator 19.0.0, SVG Export Plug-In . SVG Version: 6.00 Build 0)  -->
<svg version="1.1" id="Layer_1" xmlns="http://www.w3.org/2000/svg" xmlns:xlink="http://www.w3.org/1999/xlink" x="0px" y="0px"
	 viewBox="-47 170.9 500 500" style="enable-background:new -47 170.9 500 500;" xml:space="preserve">
<style type="text/css">
	.st0{fill:#252525;}
</style>
<g id="XMLID_1_">
	<path id="XMLID_16_" class="st0" d="M161.7,434.7c0,0-11.9,6.9,8.5,9.3c24.7,2.8,37.3,2.4,64.5-2.7c0,0,7.2,4.5,17.1,8.4
		C190.8,475.7,113.8,448.1,161.7,434.7L161.7,434.7z"/>
	<path id="XMLID_15_" class="st0" d="M154.2,400.6c0,0-13.3,9.9,7,12c26.4,2.7,47.2,2.9,83.2-4c0,0,5,5.1,12.8,7.8
		C183.6,438,101.5,418.1,154.2,400.6L154.2,400.6z"/>
	<path id="XMLID_14_" class="st0" d="M217,342.8c15,17.3-3.9,32.9-3.9,32.9s38.1-19.7,20.6-44.3c-16.4-23-28.9-34.4,39-73.8
		C272.7,257.5,166.1,284.1,217,342.8L217,342.8z"/>
	<path id="XMLID_13_" class="st0" d="M297.6,459.9c0,0,8.8,7.3-9.7,12.9c-35.2,10.7-146.5,13.9-177.4,0.4
		c-11.1-4.8,9.7-11.5,16.3-13c6.8-1.5,10.7-1.2,10.7-1.2c-12.4-8.7-79.9,17.1-34.3,24.5C227.6,503.7,329.9,474.5,297.6,459.9
		L297.6,459.9z"/>
	<path id="XMLID_12_" class="st0" d="M167.4,365.3c0,0-56.6,13.4-20,18.3c15.4,2.1,46.2,1.6,74.9-0.8c23.4-2,46.9-6.2,46.9-6.2
		s-8.3,3.5-14.2,7.6c-57.5,15.1-168.5,8.1-136.5-7.4C145.4,363.8,167.4,365.3,167.4,365.3L167.4,365.3z"/>
	<path id="XMLID_11_" class="st0" d="M268.9,422.1c58.4-30.4,31.4-59.5,12.6-55.6c-4.6,1-6.7,1.8-6.7,1.8s1.7-2.7,5-3.8
		c37.3-13.1,66,38.7-12,59.2C267.7,423.6,268.6,422.8,268.9,422.1L268.9,422.1z"/>
	<path id="XMLID_10_" class="st0" d="M233.7,193.9c0,0,32.4,32.4-30.7,82.1c-50.6,39.9-11.5,62.7,0,88.7
		c-29.5-26.6-51.2-50.1-36.6-71.9C187.7,260.8,246.7,245.3,233.7,193.9L233.7,193.9z"/>
	<path id="XMLID_9_" class="st0" d="M173.1,504.3c56.1,3.6,142.2-2,144.2-28.5c0,0-3.9,10.1-46.3,18c-47.9,9-106.9,8-141.9,2.2
		C129.1,496,136.3,502,173.1,504.3L173.1,504.3z"/>
	<path class="st0" d="M314.8,551.9h-1.7v-1h4.6v1H316v4.8h-1.2V551.9L314.8,551.9L314.8,551.9z M324,552.2L324,552.2l-1.7,4.5h-0.8
		l-1.7-4.5l0,0v4.5h-1.1V551h1.7l1.6,4.1l1.6-4.1h1.6v5.7H324V552.2L324,552.2z"/>
	<path class="st0" d="M163.9,605.7c-5.3,4.6-10.9,7.2-15.9,7.2c-7.1,0-11-4.3-11-11.2c0-7.4,4.2-12.9,20.8-12.9h6.1L163.9,605.7
		L163.9,605.7L163.9,605.7z M178.5,622.2v-51c0-13-7.4-21.6-25.3-21.6c-10.4,0-19.6,2.6-27.1,5.9l2.1,9c5.9-2.2,13.5-4.2,20.9-4.2
		c10.3,0,14.8,4.2,14.8,12.7v6.4h-5.2c-25.1,0-36.4,9.7-36.4,24.3c0,12.6,7.5,19.8,21.5,19.8c9,0,15.8-3.7,22-9.2l1.1,7.7h11.6
		V622.2z"/>
	<path id="XMLID_4_" class="st0" d="M227.2,622.2H209l-21.9-71.3H203l13.6,43.8l3,13.2c6.9-19,11.7-38.4,14.2-57h15.5
		C245.1,574.4,237.7,600.1,227.2,622.2L227.2,622.2z"/>
	<path class="st0" d="M297.1,605.7c-5.3,4.6-10.9,7.2-15.9,7.2c-7.2,0-11-4.3-11-11.2c0-7.4,4.2-12.9,20.8-12.9h6.2L297.1,605.7
		L297.1,605.7L297.1,605.7z M311.7,622.2v-51c0-13-7.5-21.6-25.3-21.6c-10.5,0-19.6,2.6-27.1,5.9l2.1,9c5.9-2.2,13.5-4.2,20.9-4.2
		c10.3,0,14.8,4.2,14.8,12.7v6.4h-5.2c-25.1,0-36.4,9.7-36.4,24.3c0,12.6,7.4,19.8,21.5,19.8c9,0,15.7-3.7,22.1-9.2l1.2,7.7h11.4
		V622.2z"/>
	<path id="XMLID_2_" class="st0" d="M106.4,634.3c-4.2,6.1-10.9,10.9-18.2,13.6l-7.2-8.5c5.6-2.9,10.4-7.5,12.6-11.8
		c1.9-3.9,2.7-8.8,2.7-20.6v-81.4h15.5v80.3C111.8,621.7,110.6,628.1,106.4,634.3L106.4,634.3z"/>
</g>
</svg>
