<?xml version="1.0" encoding="utf-8"?>
<!-- Generator: Adobe Illustrator 19.0.0, SVG Export Plug-In . SVG Version: 6.00 Build 0)  -->
<svg version="1.1" id="Layer_2" xmlns="http://www.w3.org/2000/svg" xmlns:xlink="http://www.w3.org/1999/xlink" x="0px" y="0px"
	 viewBox="-47 170.9 500 500" style="enable-background:new -47 170.9 500 500;" xml:space="preserve">
<style type="text/css">
	.st0{fill:#252525;}
</style>
<path id="XMLID_57_" class="st0" d="M117.3,515.3L117.3,515.3l-3.2,11.3L117.3,515.3L117.3,515.3z"/>
<path id="XMLID_56_" class="st0" d="M133.7,539.9h-3.5H133.7z"/>
<path id="XMLID_55_" class="st0" d="M132.8,556.8L132.8,556.8l-21.1,0.1L132.8,556.8L132.8,556.8z"/>
<path id="XMLID_54_" class="st0" d="M137.2,539.9h-3.5H137.2z"/>
<path id="XMLID_53_" class="st0" d="M134.7,555.4l3.7-14L134.7,555.4L134.7,555.4L134.7,555.4z"/>
<path id="XMLID_52_" class="st0" d="M212.3,490.8l-6.8,32.2C205.5,523,212.3,490.8,212.3,490.8z"/>
<path id="XMLID_51_" class="st0" d="M194.7,490.8l-5.2,24L194.7,490.8L194.7,490.8z"/>
<path id="XMLID_50_" class="st0" d="M211.2,489.4h-14.6c-0.8,0-1.6,0.7-1.8,1.4l-5.2,24l-5.2,24c-0.2,0.8-1,1.4-1.8,1.4h-8.9h-1.5
	c-10.3,0-9.1-7.1-7-16.8c0-0.1,0-0.2,0.1-0.3l0.2-1.2c0-0.1,0-0.2,0-0.2l0.5-2.5l0.5-2.7c0.2-0.8,0.4-2,0.5-2.7l2.4-11.5l2.4-11.5
	c0.2-0.8-0.4-1.5-1.2-1.5h-15c-0.8,0-1.6,0.7-1.8,1.4l-3.2,15.3l-3.2,15.3l0,0l-0.4,1.6c-3.7,17-2.7,33.2,17.5,33.7
	c0.3,0,0.6,0,0.6,0h31.7c0.8,0,1.6-0.7,1.8-1.4l6.8-32.2l6.8-32.2C212.5,490,212,489.4,211.2,489.4L211.2,489.4z"/>
<path id="XMLID_49_" class="st0" d="M269.6,540.5c0.8,0,1.3,0.7,1.2,1.4l-1.4,6.9"/>
<path id="XMLID_48_" class="st0" d="M267.9,555.9l1.4-7L267.9,555.9L267.9,555.9L267.9,555.9z"/>
<path id="XMLID_47_" class="st0" d="M266.1,557.3L266.1,557.3c-4.3,0-17.2,0.1-27,0.1C251,557.5,266.1,557.3,266.1,557.3
	L266.1,557.3z"/>
<path id="XMLID_46_" class="st0" d="M230.4,531.6c0-0.8,0.9-2.1,1.7-2.1h-1.8C229.4,537.8,230.4,531.6,230.4,531.6L230.4,531.6z"/>
<path id="XMLID_45_" class="st0" d="M240.5,557.5c-0.1,0-0.2,0-0.3,0C240.3,557.5,240.4,557.5,240.5,557.5z"/>
<path id="XMLID_44_" class="st0" d="M269.6,540.5c0.8,0,1.3,0.7,1.2,1.4l-1.4,6.9l-0.2,1.1"/>
<path id="XMLID_43_" class="st0" d="M247.4,557.5L247.4,557.5L247.4,557.5z"/>
<path id="XMLID_42_" class="st0" d="M243.8,557.5h-0.2H243.8z"/>
<path id="XMLID_41_" class="st0" d="M242.7,557.5c-0.1,0-0.2,0-0.3,0C242.5,557.5,242.6,557.5,242.7,557.5z"/>
<path id="XMLID_40_" class="st0" d="M241.6,557.5h-0.3H241.6z"/>
<path id="XMLID_39_" class="st0" d="M243.6,557.5c-0.3,0-0.6,0-0.9,0C243,557.5,243.3,557.5,243.6,557.5z"/>
<path id="XMLID_38_" class="st0" d="M247.4,557.5c-1.2,0-2.4,0-3.5,0C245,557.5,246.2,557.5,247.4,557.5z"/>
<path id="XMLID_37_" class="st0" d="M266.1,557.3L266.1,557.3c-3.2,0-11,0.1-18.7,0.1C255.2,557.4,263,557.4,266.1,557.3z"/>
<path id="XMLID_36_" class="st0" d="M267.9,555.9l1.2-5.8L267.9,555.9L267.9,555.9L267.9,555.9z"/>
<path id="XMLID_35_" class="st0" d="M242.4,557.5h-0.8H242.4z"/>
<path id="XMLID_34_" class="st0" d="M240.2,557.5h-1H240.2z"/>
<path id="XMLID_33_" class="st0" d="M241.3,557.5h-0.8H241.3z"/>
<path id="XMLID_32_" class="st0" d="M27.2,531.8l2.3-10.1l-2.6,11.5l-2.6,11.7l2.2-10.3C26.7,533.9,27,532.6,27.2,531.8L27.2,531.8z
	"/>
<path id="XMLID_31_" class="st0" d="M54.4,489.2H38.3c-0.8,0-1.6,0.6-1.8,1.4l-1.5,6.7l-1.5,6.7c-0.2,0.8,0.3,1.4,1.2,1.4h16.2
	c0.8,0,1.6-0.6,1.8-1.4l1.5-6.7l1.5-6.7l0,0C55.7,489.9,55.2,489.2,54.4,489.2L54.4,489.2z"/>
<path id="XMLID_30_" class="st0" d="M50.9,511.6L50.9,511.6l-4.7,21.8L50.9,511.6z"/>
<path id="XMLID_29_" class="st0" d="M4.2,583.9c0,0,8.1,0.1,13.3,0.1C13.5,584,7.1,583.9,4.2,583.9L4.2,583.9L4.2,583.9z"/>
<path id="XMLID_28_" class="st0" d="M31.7,511.6l-2.3,10.1L31.7,511.6z"/>
<path id="XMLID_27_" class="st0" d="M49.7,510.2H33.5c-0.8,0-1.6,0.6-1.8,1.4l-2.3,10.1l-2.3,10.1c-0.2,0.8-0.5,2.1-0.6,2.9
	l-2.2,10.2l-2.2,10.3c-0.2,0.8-0.5,2.1-0.8,2.8c0,0-3,9-8.1,8.9c-0.2,0-0.4,0-0.6,0c-2.5,0-4.4-0.1-4.4-0.1l0,0
	c-0.8,0-1.6,0.6-1.8,1.4l-1.7,7.1L3,582.4c-0.2,0.8,0.3,1.4,1.1,1.5c2.9,0,9.3,0.1,13.3,0.1c12.7,0,19.4-7,23.7-27.3l5-23.3
	l4.7-21.8C51.1,510.8,50.5,510.2,49.7,510.2L49.7,510.2z"/>
<path id="XMLID_26_" class="st0" d="M279.9,556.7c-0.8,0-1.3-0.7-1.2-1.4l12.2-57.1"/>
<path id="XMLID_25_" class="st0" d="M296.8,555.2l4.9-24.4L296.8,555.2z"/>
<path id="XMLID_24_" class="st0" d="M278.9,555.9c-0.1-0.4,0-1.4,0.1-2.2l5.8-27.1l-6.1,28.5c-0.2,0.8,0.4,1.4,1.2,1.4h1.5
	C280.6,556.7,279,556.3,278.9,555.9L278.9,555.9z"/>
<path id="XMLID_23_" class="st0" d="M295.9,556.3c-0.4,0.2-1.5,0.3-2.3,0.3h1.5c0.8,0,1.6-0.7,1.8-1.5l0.3-1.4
	C297,554.6,296.3,556.2,295.9,556.3L295.9,556.3z"/>
<path id="XMLID_22_" class="st0" d="M299.3,543l2.2-10.8l0,0L299.3,543L299.3,543z"/>
<path id="XMLID_21_" class="st0" d="M347.4,501.9l0.7,2.8c0.2,0.8-0.3,1.4-1.1,1.4"/>
<path id="XMLID_20_" class="st0" d="M297.1,553.8l2.2-10.7L297.1,553.8z"/>
<path id="XMLID_19_" class="st0" d="M346.7,499.1l0.7,2.8L346.7,499.1z"/>
<path id="XMLID_18_" class="st0" d="M301.5,532.3c0.2-0.8,0.4-2.1,0.6-2.9l2.3-10.9l-2.6,12.3L301.5,532.3L301.5,532.3z"/>
<path id="XMLID_17_" class="st0" d="M291.1,497.2c-0.2,0.8-0.4,1.7-0.5,2.4l-5.8,27.1l6.1-28.5L291.1,497.2L291.1,497.2z"/>
<path id="XMLID_16_" class="st0" d="M348.1,504.7l-0.7-2.8l-0.7-2.8l-0.3-1.4c-1.3-5.1-5.2-8.1-13.6-8.1h-13.1h-12h-1h-12.5
	c-0.8,0-1.6,0.6-1.8,1.4l0,0l-0.6,2.8l-0.7,3.3l-0.2,0.9l-6.1,28.5l-5.8,27.1c-0.2,0.8-0.2,1.8-0.1,2.2s1.7,0.7,2.5,0.7h12.2
	c0.8,0,1.8-0.1,2.3-0.3c0.4-0.2,1.1-1.8,1.3-2.6l2.2-10.7l2.2-10.7l0,0l0.3-1.4l2.6-12.3l2.3-10.9c0.2-0.8,1-1.4,1.8-1.4H347
	C347.7,506.1,348.3,505.5,348.1,504.7L348.1,504.7z"/>
<path id="XMLID_15_" class="st0" d="M397.5,479.6c-0.8,0-2.1,0-3,0h-12.3c-0.8,0-1.9,0.5-2.3,1.2l-27.2,39.8c-0.5,0.7-1,0.6-1.2-0.2
	l-2-8.8c-0.2-0.8-1-1.4-1.8-1.4h-17.5c-0.8,0-1.3,0.6-1.1,1.4l7.8,27.4c0.2,0.8,0.2,2.1,0,2.9l-3.4,13.3c-0.2,0.8,0.3,1.4,1.1,1.4
	h17.3c0.8,0,1.6-0.6,1.8-1.4l3.4-13.3c0.2-0.8,0.8-2,1.3-2.6l44.1-58.6c0.5-0.6,0.2-1.2-0.6-1.2L397.5,479.6L397.5,479.6z"/>
<path id="XMLID_12_" class="st0" d="M258.6,514L258.6,514c-0.1,0.9-0.9,1.5-1.7,1.5h-22.2c-0.8,0-1.2-0.5-1-1.2c0,0,0,0,0-0.1l0,0
	c0,0,0,0,0-0.1c0,0,0-0.2,0.1-0.4c2.1-5.6,6.4-9.3,14.5-9.3C257.5,504.5,259.3,509,258.6,514L258.6,514z M252.1,488.4
	c-28.4,0-35.2,17.3-39,34.7c-3.8,17.8-3.5,34.4,26,34.4h1c0.1,0,0.2,0,0.3,0h0.8h0.3h0.8c0.1,0,0.2,0,0.3,0c0.3,0,0.6,0,0.9,0h0.2
	c1.2,0,2.3,0,3.5,0h0.1c7.8,0,15.6-0.1,18.7-0.1c0.8,0,1.6-0.7,1.8-1.5l1.2-5.8l0.2-1.1l1.4-6.9c0.2-0.8-0.4-1.4-1.2-1.4h-26.5
	c-10.5,0-13.7-2.8-12.5-11h42.3l0,0l0,0c0.7,0,1.3-0.5,1.5-1.1c0-0.1,0.1-0.2,0.1-0.4l0,0C280.9,504.4,279.1,488.4,252.1,488.4
	L252.1,488.4z"/>
<path id="XMLID_9_" class="st0" d="M117.7,513.9l-0.4,1.4l0,0l-3.2,11.3l-3.2,11.3c-0.2,0.8-1.1,1.4-1.9,1.4H92.1
	c-12.8,0-15.9-10-12.8-24.8c3.1-15.1,9.2-24.5,21.9-25.5C118.4,487.8,121.9,499.9,117.7,513.9L117.7,513.9z M129.3,538.5
	c0,0,8-19.4,9.8-30.5c2.5-15-5-36.7-34-36.7c-28.8,0-41.3,20.7-46,43.2c-4.8,22.7,1.5,42.6,30.1,42.4l22.6-0.1l21.1-0.1
	c0.8,0,1.6-0.7,1.9-1.4l3.7-14c0.2-0.8-0.3-1.4-1.1-1.4h-3.5h-3.5c-0.7,0-1.1-0.5-1-1C129.2,538.7,129.2,538.6,129.3,538.5
	L129.3,538.5z"/>
<path id="XMLID_8_" class="st0" d="M271.7,525.6c0,0.5-0.4,1-1,1c-0.5,0-1-0.4-1-1c0-0.5,0.4-1,1-1
	C271.3,524.6,271.7,525,271.7,525.6z"/>
<path id="XMLID_3_" class="st0" d="M112.2,306.1c-18.9,27.2-16.6,62.6-2.1,91.4c0.3,0.7,0.7,1.4,1.1,2.1c0.2,0.4,0.4,0.9,0.7,1.3
	c0.1,0.3,0.3,0.5,0.4,0.7c0.2,0.5,0.5,0.9,0.8,1.3c0.4,0.8,0.9,1.6,1.4,2.4c0.3,0.4,0.5,0.9,0.8,1.3c0.5,0.8,1.1,1.7,1.6,2.5
	c0.2,0.4,0.4,0.7,0.7,1.1c0.8,1.1,1.5,2.2,2.3,3.3c0,0,0,0.1,0.1,0.1c0.1,0.2,0.3,0.3,0.4,0.5c0.7,0.9,1.4,1.9,2.1,2.8
	c0.3,0.3,0.5,0.7,0.8,1c0.6,0.8,1.3,1.6,2,2.4c0.2,0.3,0.5,0.6,0.7,0.9c0.9,1,1.8,2.1,2.7,3.1c0,0,0,0,0.1,0.1l0.1,0.1
	c0.9,1,1.8,2,2.8,2.9c0.3,0.3,0.6,0.6,0.9,0.9c0.7,0.7,1.5,1.5,2.2,2.2c0.3,0.3,0.6,0.6,0.9,0.9c1,0.9,2,1.9,3,2.8l0,0
	c0.2,0.2,0.4,0.3,0.5,0.4c0.9,0.8,1.8,1.6,2.7,2.3c0.4,0.3,0.8,0.6,1.1,0.9c0.8,0.6,1.5,1.2,2.3,1.8c0.4,0.3,0.8,0.6,1.2,0.9
	c0.9,0.6,1.7,1.2,2.6,1.8c0.3,0.2,0.6,0.4,0.9,0.7c0.1,0.1,0.2,0.1,0.3,0.2c0.8,0.6,1.7,1.1,2.5,1.7c0.4,0.2,0.7,0.5,1.1,0.7
	c1.3,0.8,2.6,1.6,3.9,2.4c0.4,0.2,0.7,0.4,1.1,0.6c1,0.6,1.9,1.1,2.9,1.6c0.5,0.3,1.1,0.6,1.6,0.8c0.7,0.4,1.4,0.7,2.1,1.1
	c0.2,0.1,0.3,0.2,0.5,0.2c0.3,0.1,0.6,0.3,0.9,0.4c1.1,0.5,2.2,1,3.3,1.5c0.2,0.1,0.5,0.2,0.7,0.3c1.3,0.6,2.6,1.1,3.9,1.6
	c0.3,0.1,0.6,0.2,0.9,0.4c1.2,0.5,2.4,0.9,3.7,1.4c0.2,0.1,0.3,0.1,0.5,0.2c1.3,0.5,2.7,0.9,4.1,1.3c0.3,0.1,0.7,0.2,1,0.3
	c1.4,0.4,2.8,0.9,4.2,1.2c91.5,16.7,118.1-55,118.1-55c-22.3,29.1-61.9,36.7-99.5,28.2c-1.4-0.3-2.8-0.8-4.2-1.2
	c-0.4-0.1-0.7-0.2-1-0.3c-1.4-0.4-2.7-0.9-4-1.3c-0.2-0.1-0.4-0.1-0.6-0.2c-1.2-0.4-2.4-0.9-3.6-1.3c-0.3-0.1-0.7-0.3-1-0.4
	c-1.3-0.5-2.6-1-3.8-1.6c-0.3-0.1-0.5-0.2-0.8-0.3c-1.1-0.5-2.2-1-3.2-1.5c-0.3-0.1-0.6-0.3-0.9-0.4c-0.8-0.4-1.7-0.8-2.5-1.3
	c-0.6-0.3-1.1-0.6-1.7-0.9c-1-0.5-2-1.1-3-1.7c-0.3-0.2-0.7-0.4-1-0.6c-1.3-0.8-2.6-1.6-3.9-2.4c-0.4-0.2-0.7-0.5-1.1-0.7
	c-0.9-0.6-1.9-1.2-2.8-1.8c-0.3-0.2-0.6-0.4-0.9-0.6c-0.9-0.6-1.8-1.3-2.6-1.9c-0.4-0.3-0.8-0.6-1.2-0.9c-0.8-0.6-1.6-1.2-2.4-1.9
	c-0.4-0.3-0.7-0.6-1.1-0.8c-1-0.8-2-1.6-3-2.5c-0.1-0.1-0.2-0.2-0.3-0.3c-1.1-0.9-2.1-1.9-3.1-2.8c-0.3-0.3-0.6-0.6-0.9-0.8
	c-0.8-0.7-1.5-1.4-2.2-2.2c-0.3-0.3-0.6-0.6-0.9-0.9c-0.9-1-1.8-1.9-2.7-2.9l-0.1-0.1c-0.9-1-1.9-2.1-2.8-3.2
	c-0.2-0.3-0.5-0.6-0.7-0.9c-0.7-0.8-1.3-1.6-2-2.5c-0.2-0.3-0.5-0.6-0.7-0.9c-0.8-1-1.6-2-2.3-3.1c-20.8-28.4-28.3-67.6-11.7-99.8"
	/>
<path id="XMLID_2_" class="st0" d="M171,283.2c-13.7,19.7-12.9,46-2.3,66.9c1.8,3.5,3.8,6.9,6.1,10.1c2.1,2.9,4.3,6.4,7,8.8
	c1,1.1,2,2.1,3.1,3.2c0.3,0.3,0.5,0.5,0.8,0.8c1,1,2.1,2,3.1,2.9l0.1,0.1l0,0c1.2,1,2.4,2,3.7,3c0.3,0.2,0.6,0.4,0.8,0.6
	c1.2,1,2.5,1.9,3.8,2.8l0.1,0.1c0.6,0.4,1.2,0.8,1.7,1.2c0.3,0.2,0.5,0.4,0.8,0.5c0.9,0.6,1.9,1.2,2.8,1.7c0.1,0.1,0.3,0.2,0.4,0.2
	c0.8,0.5,1.7,0.9,2.5,1.4c0.3,0.2,0.6,0.3,0.9,0.5c0.6,0.3,1.2,0.6,1.8,0.9c0.1,0,0.2,0.1,0.3,0.1c1.2,0.6,2.4,1.2,3.7,1.7
	c0.3,0.1,0.5,0.2,0.8,0.3c1,0.4,2,0.8,3,1.2c0.4,0.2,0.9,0.3,1.3,0.5c0.9,0.3,1.8,0.6,2.8,1c0.4,0.1,0.8,0.3,1.2,0.4
	c1.3,0.4,2.6,0.9,4,1.2c70.6,11.7,86.9-42.7,86.9-42.7c-14.7,21.2-43.2,31.3-73.5,23.4c-1.3-0.4-2.7-0.7-4-1.2
	c-0.4-0.1-0.8-0.3-1.2-0.4c-0.9-0.3-1.9-0.6-2.8-1c-0.4-0.2-0.8-0.3-1.3-0.5c-1-0.4-2-0.8-3-1.2c-0.3-0.1-0.5-0.2-0.8-0.3
	c-1.2-0.5-2.5-1.1-3.7-1.7c-0.6-0.3-1.2-0.6-1.8-0.9c-0.4-0.2-0.7-0.4-1.1-0.5c-0.8-0.4-1.6-0.9-2.3-1.3c-0.2-0.1-0.4-0.2-0.6-0.3
	c-1-0.6-1.9-1.1-2.8-1.7c-0.3-0.2-0.6-0.4-0.9-0.6c-0.6-0.4-1.2-0.8-1.8-1.2c-1.3-0.9-2.6-1.8-3.8-2.8c-0.3-0.2-0.6-0.4-0.9-0.7
	c-13.3-10.5-23.8-24.8-28.8-41.1c-5.3-16.9-4.1-35.8,5-51.2"/>
<path id="XMLID_1_" class="st0" d="M220.3,266.1c-8.1,11.9-8.9,26.6-3.3,39.7c5.9,13.9,18,24.8,32.1,30c0.6,0.2,1.2,0.4,1.8,0.6
	c0.3,0.1,0.5,0.2,0.8,0.2c0.8,0.3,1.7,0.6,2.5,0.7c39,7.5,49.6-20,52.4-24.1c-9.3,13.3-24.8,16.5-43.9,11.9
	c-1.5-0.4-3.2-0.9-4.6-1.4c-1.9-0.7-3.7-1.4-5.5-2.3c-3.4-1.6-6.6-3.6-9.6-5.9c-17.1-13-27.7-37.7-16.6-57.9"/>
</svg>
