<?xml version="1.0" encoding="utf-8"?>
<!-- Generator: Adobe Illustrator 19.0.0, SVG Export Plug-In . SVG Version: 6.00 Build 0)  -->
<svg version="1.1" id="Layer_2" xmlns="http://www.w3.org/2000/svg" xmlns:xlink="http://www.w3.org/1999/xlink" x="0px" y="0px"
	 viewBox="-47 170.9 500 500" style="enable-background:new -47 170.9 500 500;" xml:space="preserve">
<style type="text/css">
	.st0{fill:#252525;}
	.st1{fill:#FFFFFF;}
</style>
<g>
	<path class="st0" d="M413.6,406.9c-0.4,6.8-1.8,13.4-3.7,20c-3.2,11-8.1,21.1-14.3,30.6c-8.6,13-19.3,24.1-31.5,33.7
		c-2.4,1.9-4.9,3.8-7.4,5.6l-1.1-1.1c-0.2-0.2-0.5-0.8-0.7-1.3c-0.4-0.8-0.9-1.7-1.6-2.7c-2-3-4.5-5.7-7.4-8
		c3.8-2.2,7.5-4.7,11.1-7.4c9-6.9,16.6-15.1,22.1-25.1c6.9-12.4,9.9-25.8,10-39.9c0.1-5.8-0.5-11.5-1.5-17.2
		c-2.7-15-9.3-28.1-19.7-39.3c-11.4-12.2-25.4-20.3-40.8-26.2c-14.6-5.7-29.7-9.1-45.1-11.4c-10-1.4-20.1-2.5-30.2-2.8
		c-13.8-0.4-27.6-0.6-41.4,0.8c-8.3,0.9-16.5,1.9-24.6,3.5c-12.8,2.5-25.3,6-37.5,10.8c-16.2,6.4-31.4,14.6-44.7,26.1
		c-9.9,8.6-18.2,18.5-23.4,30.7c-4.2,9.9-6,20.2-4.8,30.9c0.8,7.1,2.9,13.9,6,20.3c6.4,13.2,16.2,23.6,27.7,32.5
		c11.7,9,24.6,15.7,38.1,21.2c3.5,1.4,7.1,2.8,10.7,4v0.1c0,0.4,0,0.8,0,1.2c0,0.3,0,0.5,0,0.7v4.1c0,12.1,0,24.3,0,36.4
		c0,0.1,0,0.2,0,0.3c-6.4-0.9-12.7-2.1-19-3.4c-11.5-2.4-22.7-5.5-33.7-9.4c-19.2-6.8-37.5-15.7-54.2-27.3
		c-9.7-6.8-18.7-14.3-26.7-23c-9-9.7-16.7-20.4-22.3-32.5c-4.5-9.8-7.6-20-8.9-30.8c-2-17.4,0.5-34.2,7.4-50.3
		c4.8-11.1,11.2-21.2,19-30.4c12.8-15.1,28.1-27.2,45.2-37.2c13.3-7.8,27.3-14,41.8-19.1c12.3-4.3,24.8-7.6,37.5-10.1
		c8.5-1.7,17.1-2.9,25.7-3.8c8.6-0.9,17.2-1.4,25.8-1.7c4-0.1,7.9-0.3,11.9-0.2c8.7,0.3,17.5,0.7,26.2,1.5
		c14.7,1.4,29.3,3.9,43.6,7.4c13.4,3.3,26.4,7.7,39.1,13.1c12.7,5.4,24.8,11.8,36.3,19.5c8.5,5.7,16.5,12.1,23.9,19.2
		c10.7,10.3,19.7,21.8,26.4,35c5.4,10.6,8.9,21.7,10.4,33.5C413.9,394.5,414,400.7,413.6,406.9z"/>
	<path class="st0" d="M280.2,531.6c-4.2,1.1-8.5,2.1-12.7,3c-7.1,1.6-14.3,2.8-21.6,3.8c0-1,0-1.9,0-2.9c0-2.7-0.1-5.4-0.1-8.1
		c0-4.8,0-9.6,0-14.3l0-6v-0.1c2.7-0.1,5.4-0.3,8.2-0.3c2.2,0,4.4-0.3,6.6-0.4c1.6-0.1,3.1-0.3,4.7-0.4c0.7,1,1.4,2.1,2.2,3.3
		l0.4,0.6l0.5,0.5c1.4,1.6,2.5,3.7,3.8,6c2.2,3.9,4.3,7.9,6.3,11.8C279,529.3,279.6,530.5,280.2,531.6z"/>
	<g>
		<path class="st0" d="M397.5,582.2c-15.6-26.4-31.3-52.7-46.9-79.1c-0.2-0.3-0.4-0.6-0.6-0.9c0-0.1-0.1-0.1-0.1-0.2
			c0-0.1-0.1-0.3-0.1-0.4c0,0,0-0.1,0-0.1c0,0,0-0.1,0-0.1h0c0,0-0.1-0.1-0.1-0.1c-0.1-0.2-0.3-0.3-0.4-0.5
			c-0.2-0.2-0.3-0.4-0.5-0.6c-0.8-1.3-1.4-2.7-2.3-3.9c-2.3-3.4-5.3-6.2-8.8-8.5c-7.5-4.7-15.8-7.2-24.4-10.1
			c7.8-1,14.9-2.9,21.8-5.8c6.3-2.6,12.1-5.9,17.4-10c7.7-5.9,13.6-13.2,17.5-22.1c2.2-4.9,3.6-10,4.6-15.3c1-5.7,1.5-11.3,1.3-17
			c-0.2-3.5-0.7-7-1.2-10.6c-1.1-7.4-3.5-14.1-7.3-20.4c-7.1-11.7-17.6-19.2-30.1-24.1c-10.2-4-20.8-5.9-31.8-5.9h-0.2
			c-20.1,0-40.2,0-60.3,0c-25.7,0-51.4,0-77.2,0h0c-1.6,0-2.1,0.4-2.1,2.1c0,48.9,0,97.9,0,146.8c0,0.7,0,1.4,0,2.1
			c0,13.6,0,27.1,0,40.7c0,0.3-0.1,0.5-0.1,0.8c0,0.7,0.1,1.3,0.1,2c0,13.8,0,27.5,0,41.3c0,0.6,0,1,0.2,1.3c0,0,0.1,0.1,0.1,0.1
			c0.3,0.3,0.7,0.4,1.4,0.4c0,0,0,0,0,0c11.1,0,22.3,0,33.4,0c11.7,0,23.4,0,35.1,0c0,0,0,0,0,0c0.6,0,1-0.1,1.3-0.3
			c0.1-0.1,0.1-0.1,0.2-0.2c0-0.1,0.1-0.2,0.1-0.3c0.1-0.3,0.1-0.6,0.1-1c0-13.7,0-27.3,0-41c0-0.7,0.1-1.3,0.1-2
			c0-4-0.1-7.9-0.1-11.9c0-6.8,0-13.6,0-20.4c0-5,0-10-0.1-15c0-0.6,0.1-1,0.8-1h0c1.1,0,2.2,0,3.3,0c2.9,0,5.8,0,8.7,0
			c2.7,0,5.5,0,8.2,0.2c1.5,0.1,2.8,0.6,4,1.4c5.1,3,8.6,7.6,11.5,12.6c1.9,2.2,3.3,4.8,4.7,7.3c3.1,5.6,6,11.3,9,16.9
			c0.3,0.6,0.7,1.1,1,1.7c9.2,17.2,18.4,34.5,27.5,51.7c0.1,0.3,0.3,0.5,0.5,0.7c0.2,0.2,0.3,0.3,0.5,0.4c0.4,0.2,0.8,0.3,1.4,0.3
			c0,0,0,0,0,0c26-0.1,51.9-0.1,77.9-0.1c0.2,0,0.5,0,0.7,0c0.3,0,0.6,0,0.9-0.3C398.1,583.2,397.8,582.7,397.5,582.2z M301.4,424.1
			c-2.2,8.2-8,12.3-15.9,13.9c-1.5,0.3-2.9,0.4-4.4,0.4h0c-6.2,0-12.3,0-18.5,0c-7.5,0-15,0-22.5,0h0c-1.4,0-1.7-0.4-1.7-1.8
			c0.1-12.3,0.1-24.7,0-37c0-1.3,0.3-1.7,1.6-1.7h0.1c3.5,0,7,0,10.6,0c3.7,0,7.4,0,11.1,0c4.1,0,8.2,0,12.2,0c2.7,0,5.4,0,8.1,0h0
			c2.9,0,5.7,0.5,8.4,1.4c6.8,2.5,10.4,7.4,11.5,14.5C302.4,417.4,302.3,420.8,301.4,424.1z"/>
		<path class="st1" d="M317,583.4c0.2,0.2,0.3,0.3,0.5,0.4C317.4,583.8,317.2,583.6,317,583.4z M349.9,501.3c0,0,0,0.1,0,0.1
			C349.9,501.4,349.9,501.4,349.9,501.3L349.9,501.3z"/>
	</g>
</g>
</svg>
