<?xml version="1.0" encoding="utf-8"?>
<!-- Generator: Adobe Illustrator 19.0.0, SVG Export Plug-In . SVG Version: 6.00 Build 0)  -->
<svg version="1.1"
	 id="svg3070" xmlns:dc="http://purl.org/dc/elements/1.1/" xmlns:cc="http://creativecommons.org/ns#" xmlns:rdf="http://www.w3.org/1999/02/22-rdf-syntax-ns#" xmlns:svg="http://www.w3.org/2000/svg" xmlns:sodipodi="http://sodipodi.sourceforge.net/DTD/sodipodi-0.dtd" xmlns:inkscape="http://www.inkscape.org/namespaces/inkscape" sodipodi:docname="New document 4" inkscape:version="0.48.0 r9654"
	 xmlns="http://www.w3.org/2000/svg" xmlns:xlink="http://www.w3.org/1999/xlink" x="0px" y="0px" viewBox="-334 241.5 291 79.5"
	 style="enable-background:new -334 241.5 291 79.5;" xml:space="preserve">
<style type="text/css">
	.st0{fill:#EEEEEE;}
	.st1{fill:#FFFFFF;}
</style>
<sodipodi:namedview  fit-margin-left="0" fit-margin-top="0" showgrid="false" inkscape:cy="33.703355" inkscape:cx="142.93233" inkscape:zoom="2.8" borderopacity="1.0" bordercolor="#666666" pagecolor="#ffffff" id="base" inkscape:window-maximized="1" inkscape:window-y="-8" inkscape:window-x="-8" inkscape:window-height="750" inkscape:window-width="1280" fit-margin-bottom="0" inkscape:current-layer="layer1" inkscape:pageshadow="2" inkscape:document-units="px" inkscape:pageopacity="0.0" fit-margin-right="0">
	</sodipodi:namedview>
<g id="layer1" transform="translate(-200.55198,-393.96227)" inkscape:label="Layer 1" inkscape:groupmode="layer">
	<g id="g3019" transform="matrix(1.018827,0,0,-1.018827,170.5996,498.03288)">
		<path class="st0" d="M-48.6-170.4c0,0,0,0.1,0.1,0.1L-48.6-170.4L-48.6-170.4z"/>
		<path class="st0" d="M-19.6-136.7H-83c-3,0-5.5-2.4-5.5-5.4v-64.1c0-3,2.5-5.4,5.5-5.4h63.4c3,0,5.5,2.4,5.5,5.4v64.1
			C-14.1-139.1-16.6-136.7-19.6-136.7z M-66-199.3h-11.2v33.8H-66V-199.3z M-71.6-160.9L-71.6-160.9c-3.8,0-6.3,2.6-6.3,5.8
			c0,3.3,2.5,5.8,6.4,5.8c3.8,0,6.2-2.5,6.3-5.8C-65.2-158.3-67.7-160.9-71.6-160.9z M-25.4-199.3h-11.2v18.1c0,4.5-1.6,7.6-5.7,7.6
			c-3.1,0-5-2.1-5.8-4.1c-0.3-0.7-0.4-1.7-0.4-2.7v-18.9h-11.2c0,0,0.1,30.6,0,33.8h11.2v-4.8c1.5,2.3,4.2,5.6,10.1,5.6
			c7.4,0,12.9-4.8,12.9-15.2V-199.3z"/>
		<path id="path16" inkscape:connector-curvature="0" class="st0" d="M-296.7-199.4h31v10.2h-19.8v38.9h-11.2
			C-296.7-150.3-296.7-199.4-296.7-199.4z"/>
		<path id="path18" inkscape:connector-curvature="0" class="st0" d="M-249.9-199.4v33.8h-11.2v-33.8H-249.9z M-255.5-161
			c3.9,0,6.4,2.6,6.4,5.8c-0.1,3.3-2.4,5.8-6.3,5.8c-3.8,0-6.4-2.5-6.4-5.8C-261.8-158.4-259.4-161-255.5-161L-255.5-161L-255.5-161
			z"/>
		<path id="path20" inkscape:connector-curvature="0" class="st0" d="M-244.7-199.4h11.2v18.9c0,1,0.1,2,0.4,2.7
			c0.8,2,2.7,4.1,5.8,4.1c4.1,0,5.7-3.1,5.7-7.6v-18.1h11.2v19.4c0,10.4-5.5,15.2-12.9,15.2c-6.1,0-8.7-3.4-10.2-5.7h0.1v4.9h-11.2
			C-244.6-168.7-244.7-199.4-244.7-199.4L-244.7-199.4z"/>
		<path id="path22" inkscape:connector-curvature="0" class="st0" d="M-194.6-150.3h-11.2v-49.1h11.2v11l2.8,3.5l8.8-14.5h13.8
			l-14.8,21l12.9,14.3h-13.5c0,0-9.2-12.8-10-14.3L-194.6-150.3L-194.6-150.3z"/>
		<path id="path24" inkscape:connector-curvature="0" class="st0" d="M-139.1-185.3c0.1,0.9,0.4,2.5,0.4,4.4
			c0,8.7-4.4,17.6-16.1,17.6c-12.5,0-18.3-9.9-18.3-18.8c0-11.1,7-18,19.3-18c4.9,0,9.4,0.7,13.1,2.2l-1.5,7.4c-3-1-6.1-1.5-10-1.5
			c-5.2,0-9.8,2.2-10.2,6.7L-139.1-185.3L-139.1-185.3z M-162.5-177.7c0.3,2.9,2.2,7.1,7,7.1c5.1,0,6.3-4.5,6.3-7.1H-162.5z"/>
		<path id="path26" inkscape:connector-curvature="0" class="st0" d="M-111-150.3v-17h-0.1c-1.6,2.4-5,4-9.5,4
			c-8.6,0-16.3-6.9-16.2-18.7c0-11,6.9-18.1,15.4-18.1c4.7,0,9.1,2,11.3,5.9h0.2l0.4-5.1h10c-0.1,2.4-0.3,6.5-0.3,10.5v38.5H-111
			L-111-150.3z M-111-183.7c0-0.9-0.1-1.7-0.2-2.4c-0.7-3.1-3.3-5.3-6.6-5.3c-4.7,0-7.7,3.7-7.7,9.7c0,5.5,2.6,10,7.8,10
			c3.5,0,5.9-2.4,6.6-5.3c0.1-0.6,0.1-1.4,0.1-2L-111-183.7L-111-183.7z"/>
		<path class="st1" d="M-48.5-170.3v-0.1h-0.1C-48.6-170.4-48.5-170.4-48.5-170.3z"/>
	</g>
</g>
</svg>
