<?xml version="1.0" encoding="utf-8"?>
<!-- Generator: Adobe Illustrator 19.0.0, SVG Export Plug-In . SVG Version: 6.00 Build 0)  -->
<svg version="1.1" id="Layer_1" xmlns="http://www.w3.org/2000/svg" xmlns:xlink="http://www.w3.org/1999/xlink" x="0px" y="0px"
	 viewBox="-47 170.9 500 500" style="enable-background:new -47 170.9 500 500;" xml:space="preserve">
<style type="text/css">
	.st0{fill:#252525;}
</style>
<g id="Layer_2">
	<g id="Blue">
		<path id="XMLID_17_" class="st0" d="M374.8,258.2c-0.7-0.1-1.3-0.2-2-0.2l-339.2,0c-6.4-0.1-11.7,5-11.8,11.5c0,0.7,0,1.3,0.2,2
			l49.4,299.9c1.3,7.6,7.8,13.5,15.4,13.5h236.7c5.5,0,10.2-4,11.4-9.3c0.1-0.3,0.1-0.5,0.2-0.8l7.5-46.2l41.8-256.8
			C385.5,265.4,381.1,259.3,374.8,258.2z M255.6,391.3v0.2l-10.9,63.9l-3.3,19.4h-75.6l-20.5-107h223.1L255.6,391.3z"/>
		<polygon id="XMLID_11_" class="st0" points="255.6,391.9 255.6,391.9 255.6,391.9 244.6,455.6 		"/>
		<path id="XMLID_14_" class="st0" d="M335.1,574.8l7.5-46.2l-7.5,45.9C335.1,574.6,335.1,574.7,335.1,574.8z"/>
		<polygon id="XMLID_15_" class="st0" points="368.4,367.9 255.6,391.2 365.7,367.9 		"/>
	</g>
</g>
</svg>
