<?xml version="1.0" encoding="utf-8"?>
<!-- Generator: Adobe Illustrator 19.0.0, SVG Export Plug-In . SVG Version: 6.00 Build 0)  -->
<svg version="1.1" id="Layer_1" xmlns="http://www.w3.org/2000/svg" xmlns:xlink="http://www.w3.org/1999/xlink" x="0px" y="0px"
	 viewBox="-47 170.9 500 500" style="enable-background:new -47 170.9 500 500;" xml:space="preserve">
<style type="text/css">
	.st0{fill:#252525;}
</style>
<g id="Layer_2">
	<g id="Blue">
		<g id="Layer_2-2">
			<g id="Layer_1-2">
				<path id="XMLID_5_" class="st0" d="M343.5,233.8H62.8c-25.9,0-46.8,20.9-46.8,46.8l0,0v280.7c0,25.8,20.9,46.8,46.8,46.8h280.7
					c25.7-0.1,46.5-21,46.5-46.8V280.6C390,254.8,369.2,233.9,343.5,233.8z M178.8,517.2c-0.1,12.3-10.1,22.2-22.4,22.2H87.3
					c-12.3,0.1-22.4-9.9-22.6-22.2l0,0V304.9c0-12.4,10-22.4,22.4-22.4h0.1h69.1c12.4,0,22.4,10,22.4,22.4l0,0L178.8,517.2
					L178.8,517.2z M341.6,423.7c0,12.4-10,22.4-22.4,22.4h-69.3c-12.4,0-22.4-10-22.4-22.4V305c0-12.4,10-22.5,22.4-22.5
					c0,0,0,0,0.1,0h69.3c12.4,0,22.4,10,22.4,22.4l0,0v118.8H341.6z"/>
			</g>
		</g>
	</g>
</g>
</svg>
